<svg width="584" height="58" viewBox="0 0 584 58" fill="none" xmlns="http://www.w3.org/2000/svg">
<path d="M23.3232 11.0909H32.8004V33.4545C32.8004 36.1136 32.1641 38.4148 30.8913 40.358C29.63 42.2898 27.8686 43.7841 25.6072 44.8409C23.3459 45.8864 20.7209 46.4091 17.7322 46.4091C14.7209 46.4091 12.0845 45.8864 9.82315 44.8409C7.56179 43.7841 5.80043 42.2898 4.53906 40.358C3.28906 38.4148 2.66406 36.1136 2.66406 33.4545V11.0909H12.1413V32.6364C12.1413 33.7159 12.38 34.6818 12.8572 35.5341C13.3345 36.375 13.9936 37.0341 14.8345 37.5114C15.6868 37.9886 16.6527 38.2273 17.7322 38.2273C18.8232 38.2273 19.7891 37.9886 20.63 37.5114C21.4709 37.0341 22.13 36.375 22.6072 35.5341C23.0845 34.6818 23.3232 33.7159 23.3232 32.6364V11.0909ZM51.582 11.0909V46H42.1047V11.0909H51.582ZM96.2179 6.64V12.352C96.2179 15.616 95.7379 19.456 91.3699 22.336C92.5219 23.056 94.8259 24.976 95.6419 26.032C100.682 22.576 101.69 17.008 101.69 12.496V6.64H96.2179ZM107.018 6.64V17.488C107.018 22.288 108.17 23.776 112.01 23.776C112.778 23.776 114.074 23.776 114.842 23.776C118.01 23.776 119.354 22.096 119.834 16.096C118.394 15.76 116.138 14.896 115.13 14.08C115.034 18.256 114.842 18.88 114.266 18.88C113.978 18.88 113.258 18.88 113.018 18.88C112.49 18.88 112.442 18.736 112.442 17.392V6.64H107.018ZM100.778 31.12L95.6899 32.752C99.8179 41.344 106.586 47.44 116.186 50.272C116.954 48.832 118.634 46.48 119.93 45.328C110.906 43.12 104.042 37.936 100.778 31.12ZM111.53 25.936V26.8C109.034 36.544 101.402 42.784 91.4179 45.232C92.4739 46.432 93.9139 48.832 94.4899 50.272C105.722 46.864 114.026 39.952 117.338 27.088L113.594 25.744L112.586 25.936H111.53ZM93.9139 25.936V31.12H113.786V25.936H93.9139ZM98.4259 6.64V11.68H109.946V6.64H98.4259ZM76.7299 19.984V24.304H91.5619V19.984H76.7299ZM76.8739 6.736V11.104H91.4659V6.736H76.8739ZM76.7299 26.512V30.88H91.5619V26.512H76.7299ZM74.3779 13.216V17.776H93.2899V13.216H74.3779ZM79.3699 33.184V37.744H86.5699V43.216H79.3699V47.776H91.5139V33.184H79.3699ZM76.5859 33.184V49.696H81.4339V33.184H76.5859ZM146.714 21.376V27.088H172.73V21.376H146.714ZM156.842 5.44V50.32H162.698V5.44H156.842ZM129.53 19.984V24.304H145.034V19.984H129.53ZM129.818 6.736V11.104H145.13V6.736H129.818ZM129.53 26.512V30.88H145.034V26.512H129.53ZM127.178 13.216V17.776H146.954V13.216H127.178ZM132.17 33.184V37.744H139.85V43.216H132.17V47.776H144.89V33.184H132.17ZM129.386 33.184V49.696H134.378V33.184H129.386ZM184.154 12.352V17.2H192.218V22.096H184.154V26.944H197.306V12.352H184.154ZM184.298 30.064V34.912H192.698V40.768H184.298V45.568H197.786V30.064H184.298ZM182.042 12.352V48.64H187.13V12.352H182.042ZM198.602 7.456V12.688H224.762V7.456H198.602ZM187.418 5.2C187.178 7.696 186.41 11.104 185.738 13.552L190.25 14.416C191.354 12.208 192.698 8.896 193.802 5.824L187.418 5.2ZM208.97 9.952V50.272H214.394V9.952H208.97ZM200.234 17.008V42.88H205.466V22.144H220.97V17.008H200.234ZM218.186 17.008V37.696C218.186 38.176 218.042 38.32 217.61 38.32C217.226 38.32 216.026 38.32 214.826 38.272C215.498 39.664 216.17 41.776 216.314 43.216C218.714 43.216 220.442 43.168 221.786 42.304C223.178 41.44 223.514 40.048 223.514 37.792V17.008H218.186Z" fill="#1E1C29"/>
<path d="M269.604 11.0909L271.347 10.1087L270.773 9.09091H269.604V11.0909ZM275.332 21.25L273.589 22.2322L274.163 23.25H275.332V21.25ZM275.604 21.25V23.25H276.766L277.342 22.241L275.604 21.25ZM281.4 11.0909V9.09091H280.238L279.663 10.0999L281.4 11.0909ZM291.968 11.0909L293.685 12.1169L295.493 9.09091H291.968V11.0909ZM281.536 28.5455L279.819 27.5194L279.194 28.5655L279.837 29.6007L281.536 28.5455ZM292.377 46V48H295.974L294.076 44.9448L292.377 46ZM281.536 46L279.8 46.9935L280.377 48H281.536V46ZM275.604 35.6364L277.34 34.6429L276.764 33.6364H275.604V35.6364ZM275.332 35.6364V33.6364H274.172L273.596 34.6429L275.332 35.6364ZM269.4 46V48H270.56L271.136 46.9935L269.4 46ZM258.627 46L256.922 44.9544L255.054 48H258.627V46ZM269.332 28.5455L271.037 29.591L271.668 28.5622L271.051 27.5244L269.332 28.5455ZM258.968 11.0909V9.09091H255.455L257.248 12.112L258.968 11.0909ZM267.862 12.0731L273.589 22.2322L277.074 20.2678L271.347 10.1087L267.862 12.0731ZM275.332 23.25H275.604V19.25H275.332V23.25ZM277.342 22.241L283.137 12.0819L279.663 10.0999L273.867 20.259L277.342 22.241ZM281.4 13.0909H291.968V9.09091H281.4V13.0909ZM290.251 10.0649L279.819 27.5194L283.253 29.5715L293.685 12.1169L290.251 10.0649ZM279.837 29.6007L290.678 47.0552L294.076 44.9448L283.235 27.4902L279.837 29.6007ZM292.377 44H281.536V48H292.377V44ZM283.272 45.0065L277.34 34.6429L273.869 36.6299L279.8 46.9935L283.272 45.0065ZM275.604 33.6364H275.332V37.6364H275.604V33.6364ZM273.596 34.6429L267.664 45.0065L271.136 46.9935L277.067 36.6299L273.596 34.6429ZM269.4 44H258.627V48H269.4V44ZM260.332 47.0456L271.037 29.591L267.627 27.4999L256.922 44.9544L260.332 47.0456ZM271.051 27.5244L260.688 10.0698L257.248 12.112L267.612 29.5665L271.051 27.5244ZM258.968 13.0909H269.604V9.09091H258.968V13.0909Z" fill="#1E1C29"/>
<path d="M326.56 12.352V17.584H370.24V12.352H326.56ZM332.224 28.72V32.944H344.704V28.72H332.224ZM332.224 36.064V40.336H344.704V36.064H332.224ZM352.336 21.376V41.056H357.664V21.376H352.336ZM342.688 20.896V44.56C342.688 45.136 342.496 45.328 341.872 45.328C341.296 45.376 339.328 45.376 337.552 45.28C338.272 46.624 339.088 48.736 339.376 50.176C342.352 50.176 344.56 50.128 346.144 49.264C347.776 48.448 348.256 47.104 348.256 44.656V20.896H342.688ZM361.984 20.08V43.936C361.984 44.608 361.744 44.8 360.976 44.8C360.16 44.848 357.664 44.848 355.216 44.704C356.032 46.192 356.944 48.64 357.232 50.176C360.784 50.224 363.376 50.032 365.2 49.168C367.12 48.304 367.648 46.816 367.648 44.032V20.08H361.984ZM333.184 7.12C334.864 9.04 336.64 11.776 337.312 13.504L343.12 11.44C342.304 9.616 340.384 7.072 338.656 5.2L333.184 7.12ZM357.808 5.104C356.752 7.696 354.784 11.2 353.152 13.456L358.336 15.232C360.016 13.12 362.128 10.048 364.096 6.976L357.808 5.104ZM329.2 20.896V50.032H334.624V25.696H344.32V20.896H329.2ZM395.104 22.432V27.52H423.568V22.432H395.104ZM403.744 32.656V49.792H408.112V32.656H403.744ZM410.704 32.656V49.744H415.072V32.656H410.704ZM406.432 5.392V17.872H411.952V5.392H406.432ZM396.16 30.736V50.224H401.296V35.536H420.496V30.736H396.16ZM417.616 30.736V45.28C417.616 45.664 417.52 45.808 417.136 45.808C416.8 45.856 415.84 45.856 414.88 45.808C415.504 47.056 416.08 48.976 416.224 50.368C418.336 50.368 419.92 50.32 421.216 49.504C422.464 48.784 422.752 47.488 422.752 45.376V30.736H417.616ZM406.192 24.112C405.952 26.608 405.28 30.016 404.656 32.464L409.504 33.856C410.512 31.792 411.664 28.624 412.96 25.552L406.192 24.112ZM396.832 7.6V19.936H422.08V7.6H416.608V14.992H402.064V7.6H396.832ZM379.312 14.368V19.504H394.576V14.368H379.312ZM384.544 5.968V16.864H389.68V5.968H384.544ZM378.256 39.376L379.504 44.992C384.208 43.84 390.256 42.352 395.872 40.864L395.296 35.824C389.104 37.168 382.624 38.56 378.256 39.376ZM379.84 21.616C380.704 26.128 381.328 32.032 381.28 35.92L385.792 35.104C385.744 31.216 385.12 25.408 384.064 20.848L379.84 21.616ZM389.056 20.512C388.72 25.552 387.76 32.512 386.752 36.832L390.928 37.888C392.08 33.76 393.376 27.04 394.384 21.568L389.056 20.512ZM434.8 10.24V16.24H473.296V10.24H434.8ZM432.112 41.2V47.008H476.032V41.2H432.112ZM450.496 13.504V43.504H457.072V13.504H450.496ZM512.848 28.336V47.728H518.56V28.336H512.848ZM503.248 26.272V31.216H528.256V26.272H503.248ZM501.424 44.272V49.264H529.312V44.272H501.424ZM504.4 35.2V40.048H527.056V35.2H504.4ZM510.112 11.872H521.344V18.496H510.112V11.872ZM504.784 7.024V23.344H526.96V7.024H504.784ZM491.632 9.712V50.272H497.248V9.712H491.632ZM484.72 18.736V24.112H502.336V18.736H484.72ZM491.968 20.896C490.432 26.224 487.072 33.184 483.712 37.024C484.624 38.464 485.872 40.864 486.4 42.544C490.096 37.792 493.504 29.248 495.328 22.384L491.968 20.896ZM499.12 5.728C495.424 7.408 489.472 8.8 484.144 9.712C484.816 10.912 485.536 12.832 485.776 14.08C491.392 13.36 498.064 12.064 502.96 10.192L499.12 5.728ZM497.104 25.408L494.608 27.664C496.096 29.68 498.976 34.048 500.128 36.352L503.392 31.84C502.48 30.736 498.304 26.416 497.104 25.408ZM541.168 12.352V17.2H549.232V22.096H541.168V26.944H554.32V12.352H541.168ZM541.312 30.064V34.912H549.712V40.768H541.312V45.568H554.8V30.064H541.312ZM539.056 12.352V48.64H544.144V12.352H539.056ZM555.616 7.456V12.688H581.776V7.456H555.616ZM544.432 5.2C544.192 7.696 543.424 11.104 542.752 13.552L547.264 14.416C548.368 12.208 549.712 8.896 550.816 5.824L544.432 5.2ZM565.984 9.952V50.272H571.408V9.952H565.984ZM557.248 17.008V42.88H562.48V22.144H577.984V17.008H557.248ZM575.2 17.008V37.696C575.2 38.176 575.056 38.32 574.624 38.32C574.24 38.32 573.04 38.32 571.84 38.272C572.512 39.664 573.184 41.776 573.328 43.216C575.728 43.216 577.456 43.168 578.8 42.304C580.192 41.44 580.528 40.048 580.528 37.792V17.008H575.2Z" fill="#1E1C29"/>
</svg>
