<svg width="35" height="35" viewBox="0 0 35 35" fill="none" xmlns="http://www.w3.org/2000/svg">
<path d="M11.6044 0.0909081L13.3466 -0.891279L12.7728 -1.90909H11.6044V0.0909081ZM17.3317 10.25L15.5895 11.2322L16.1633 12.25H17.3317V10.25ZM17.6044 10.25V12.25H18.766L19.3416 11.241L17.6044 10.25ZM23.3999 0.0909081V-1.90909H22.2382L21.6627 -0.900114L23.3999 0.0909081ZM33.968 0.0909081L35.6848 1.11694L37.4933 -1.90909H33.968V0.0909081ZM23.5362 17.5455L21.8195 16.5194L21.1943 17.5655L21.8373 18.6007L23.5362 17.5455ZM34.3771 35V37H37.9737L36.0761 33.9448L34.3771 35ZM23.5362 35L21.8004 35.9935L22.3765 37H23.5362V35ZM17.6044 24.6364L19.3402 23.6429L18.7641 22.6364H17.6044V24.6364ZM17.3317 24.6364V22.6364H16.172L15.5959 23.6429L17.3317 24.6364ZM11.3999 35V37H12.5596L13.1356 35.9935L11.3999 35ZM0.627131 35L-1.07778 33.9544L-2.94559 37H0.627131V35ZM11.3317 17.5455L13.0366 18.591L13.6676 17.5622L13.0514 16.5244L11.3317 17.5455ZM0.96804 0.0909081V-1.90909H-2.54543L-0.75167 1.11199L0.96804 0.0909081ZM9.86219 1.0731L15.5895 11.2322L19.0739 9.26781L13.3466 -0.891279L9.86219 1.0731ZM17.3317 12.25H17.6044V8.25H17.3317V12.25ZM19.3416 11.241L25.1371 1.08193L21.6627 -0.900114L15.8672 9.25898L19.3416 11.241ZM23.3999 2.09091H33.968V-1.90909H23.3999V2.09091ZM32.2513 -0.935123L21.8195 16.5194L25.253 18.5715L35.6848 1.11694L32.2513 -0.935123ZM21.8373 18.6007L32.6782 36.0552L36.0761 33.9448L25.2352 16.4902L21.8373 18.6007ZM34.3771 33H23.5362V37H34.3771V33ZM25.272 34.0065L19.3402 23.6429L15.8686 25.6299L21.8004 35.9935L25.272 34.0065ZM17.6044 22.6364H17.3317V26.6364H17.6044V22.6364ZM15.5959 23.6429L9.66407 34.0065L13.1356 35.9935L19.0675 25.6299L15.5959 23.6429ZM11.3999 33H0.627131V37H11.3999V33ZM2.33205 36.0456L13.0366 18.591L9.62676 16.4999L-1.07778 33.9544L2.33205 36.0456ZM13.0514 16.5244L2.68775 -0.930169L-0.75167 1.11199L9.61197 18.5665L13.0514 16.5244ZM0.96804 2.09091H11.6044V-1.90909H0.96804V2.09091Z" fill="#1E1C29"/>
</svg>
